<?xml version="1.0" encoding="UTF-8" standalone="no"?>
<!-- Created with Inkscape (http://www.inkscape.org/) -->

<svg
   xmlns:dc="http://purl.org/dc/elements/1.1/"
   xmlns:cc="http://creativecommons.org/ns#"
   xmlns:rdf="http://www.w3.org/1999/02/22-rdf-syntax-ns#"
   xmlns:svg="http://www.w3.org/2000/svg"
   xmlns="http://www.w3.org/2000/svg"
   xmlns:sodipodi="http://sodipodi.sourceforge.net/DTD/sodipodi-0.dtd"
   xmlns:inkscape="http://www.inkscape.org/namespaces/inkscape"
   width="139.56566mm"
   height="16.427874mm"
   viewBox="0 0 494.52399 58.209001"
   id="svg3409"
   version="1.1"
   inkscape:version="0.91 r13725"
   sodipodi:docname="bitcoin-barber-text.svg">
  <defs
     id="defs3411" />
  <sodipodi:namedview
     id="base"
     pagecolor="#ffffff"
     bordercolor="#666666"
     borderopacity="1.0"
     inkscape:pageopacity="0.0"
     inkscape:pageshadow="2"
     inkscape:zoom="1.4"
     inkscape:cx="261.96953"
     inkscape:cy="-86.080256"
     inkscape:document-units="px"
     inkscape:current-layer="layer1"
     showgrid="false"
     fit-margin-top="0"
     fit-margin-left="0"
     fit-margin-right="0"
     fit-margin-bottom="0"
     inkscape:window-width="2063"
     inkscape:window-height="985"
     inkscape:window-x="1334"
     inkscape:window-y="505"
     inkscape:window-maximized="0" />
  <metadata
     id="metadata3414">
    <rdf:RDF>
      <cc:Work
         rdf:about="">
        <dc:format>image/svg+xml</dc:format>
        <dc:type
           rdf:resource="http://purl.org/dc/dcmitype/StillImage" />
        <dc:title></dc:title>
      </cc:Work>
    </rdf:RDF>
  </metadata>
  <g
     inkscape:label="Layer 1"
     inkscape:groupmode="layer"
     id="layer1"
     transform="translate(-155.59514,-403.2577)">
    <g
       id="text"
       transform="translate(5.5071429,32.859705)">
      <g
         id="g5">
        <path
           style="fill:#f68a31"
           inkscape:connector-curvature="0"
           id="path7"
           d="m 193.964,422.469 0,-6.836 4.373,0 0,-30.051 -4.373,0 0,-6.836 16.381,0 0,6.836 -4.372,0 0,30.051 4.372,0 0,6.836 -16.381,0 z" />
        <path
           style="fill:#f68a31"
           inkscape:connector-curvature="0"
           id="path9"
           d="m 228.758,422.469 0,-36.887 -6.712,0 c -0.903,0 -1.355,0.452 -1.355,1.354 l 0,2.647 -7.082,0 0,-6.896 c 0,-1.437 0.287,-2.453 0.862,-3.049 0.575,-0.595 1.602,-0.893 3.079,-0.893 l 30.483,0 c 1.478,0 2.503,0.298 3.079,0.893 0.574,0.596 0.862,1.612 0.862,3.049 l 0,6.896 -7.082,0 0,-2.647 c 0,-0.902 -0.452,-1.354 -1.355,-1.354 l -6.712,0 0,36.887 -8.067,0 z" />
        <path
           style="fill:#f68a31"
           inkscape:connector-curvature="0"
           id="path11"
           d="m 253.575,400.238 c 0,-6.322 2.114,-11.608 6.343,-15.857 4.228,-4.249 9.503,-6.374 15.826,-6.374 1.56,0 3.223,0.176 4.988,0.523 1.765,0.35 3.55,0.873 5.357,1.57 1.806,0.699 3.294,1.715 4.465,3.049 1.17,1.334 1.755,2.885 1.755,4.649 l 0,4.864 -7.328,0 0,-2.462 c 0,-1.478 -0.955,-2.627 -2.864,-3.448 -1.909,-0.821 -3.972,-1.231 -6.189,-1.231 -4.024,0 -7.359,1.334 -10.007,4.002 -2.648,2.67 -3.972,6.241 -3.972,10.716 0,4.27 1.375,7.913 4.126,10.931 2.75,3.018 6.117,4.525 10.099,4.525 1.56,0 3.068,-0.194 4.526,-0.585 1.457,-0.39 2.688,-0.871 3.695,-1.446 1.005,-0.575 1.909,-1.149 2.709,-1.725 0.8,-0.574 1.386,-1.047 1.755,-1.416 l 0.554,-0.616 4.25,5.788 c -0.165,0.206 -0.411,0.473 -0.739,0.801 -0.329,0.329 -1.068,0.924 -2.217,1.786 -1.15,0.862 -2.351,1.632 -3.603,2.31 -1.253,0.677 -2.885,1.283 -4.896,1.816 -2.012,0.533 -4.064,0.801 -6.158,0.801 -6.61,0 -12.008,-2.187 -16.196,-6.559 -4.188,-4.372 -6.279,-9.843 -6.279,-16.412 z" />
        <path
           style="fill:#f68a31"
           inkscape:connector-curvature="0"
           id="path13"
           d="m 296.929,400.3 c 0,-6.281 2.165,-11.567 6.497,-15.857 4.331,-4.289 9.699,-6.436 16.104,-6.436 6.405,0 11.771,2.146 16.104,6.436 4.331,4.29 6.497,9.576 6.497,15.857 0,6.445 -2.166,11.875 -6.497,16.288 -4.332,4.413 -9.699,6.62 -16.104,6.62 -6.405,0 -11.772,-2.207 -16.104,-6.62 -4.332,-4.413 -6.497,-9.843 -6.497,-16.288 z m 8.375,0 c 0,4.352 1.375,8.005 4.126,10.961 2.75,2.956 6.117,4.434 10.099,4.434 3.981,0 7.348,-1.478 10.099,-4.434 2.75,-2.956 4.126,-6.609 4.126,-10.961 0,-4.146 -1.376,-7.646 -4.126,-10.5 -2.751,-2.853 -6.118,-4.279 -10.099,-4.279 -3.982,0 -7.349,1.427 -10.099,4.279 -2.751,2.854 -4.126,6.353 -4.126,10.5 z" />
        <path
           style="fill:#f68a31"
           inkscape:connector-curvature="0"
           id="path15"
           d="m 346.316,422.469 0,-6.836 4.373,0 0,-30.051 -4.373,0 0,-6.836 16.381,0 0,6.836 -4.372,0 0,30.051 4.372,0 0,6.836 -16.381,0 z" />
        <path
           style="fill:#f68a31"
           inkscape:connector-curvature="0"
           id="path17"
           d="m 367.13,422.469 0,-6.836 2.648,0 c 0.903,0 1.355,-0.451 1.355,-1.354 l 0,-35.532 7.267,0 16.565,24.201 c 0.493,0.739 1.047,1.622 1.663,2.648 0.616,1.026 1.087,1.868 1.416,2.524 l 0.554,0.985 0.124,0 c -0.288,-2.422 -0.431,-4.474 -0.431,-6.158 l 0,-20.014 c 0,-1.437 0.328,-2.494 0.985,-3.172 0.656,-0.677 1.724,-1.016 3.203,-1.016 l 7.882,0 0,6.836 -2.647,0 c -0.904,0 -1.355,0.452 -1.355,1.354 l 0,35.532 -7.205,0 -16.627,-24.14 c -0.493,-0.739 -1.047,-1.621 -1.663,-2.648 -0.616,-1.025 -1.088,-1.867 -1.416,-2.524 l -0.554,-0.985 -0.124,0 c 0.287,2.423 0.431,4.476 0.431,6.158 l 0,19.952 c 0,1.478 -0.329,2.546 -0.985,3.202 -0.657,0.657 -1.724,0.985 -3.202,0.985 l -7.884,0 z" />
      </g>
      <g
         id="g19">
        <path
           style="fill:#010101"
           inkscape:connector-curvature="0"
           id="path21"
           d="m 418.857,418.281 0,-32.699 -4.004,0 0,-6.836 18.906,0 c 4.022,0 7.286,0.996 9.791,2.986 2.504,1.992 3.757,4.753 3.757,8.283 0,2.258 -0.515,4.188 -1.54,5.788 -1.026,1.602 -2.278,2.793 -3.756,3.572 l 0,0.123 c 2.257,0.657 3.992,1.95 5.203,3.88 1.211,1.93 1.816,4.064 1.816,6.404 0,4.146 -1.427,7.297 -4.279,9.452 -2.854,2.155 -6.457,3.233 -10.808,3.233 l -10.899,0 c -1.438,0 -2.494,-0.328 -3.172,-0.985 -0.677,-0.655 -1.015,-1.723 -1.015,-3.201 z m 8.067,-21.677 6.897,0 c 1.642,0 2.935,-0.523 3.879,-1.57 0.944,-1.047 1.417,-2.391 1.417,-4.033 0,-1.642 -0.473,-2.956 -1.417,-3.941 -0.944,-0.985 -2.278,-1.478 -4.002,-1.478 l -6.774,0 0,11.022 z m 0,17.674 c 0,0.903 0.451,1.354 1.354,1.354 l 6.281,0 c 1.93,0 3.438,-0.585 4.526,-1.755 1.088,-1.17 1.632,-2.699 1.632,-4.588 0,-1.847 -0.554,-3.355 -1.662,-4.526 -1.108,-1.17 -2.607,-1.755 -4.496,-1.755 l -7.636,0 0,11.27 z" />
        <path
           style="fill:#010101"
           inkscape:connector-curvature="0"
           id="path23"
           d="m 452.234,422.469 0,-6.836 0.985,0 c 0.985,0 1.621,-0.451 1.908,-1.354 l 12.994,-35.532 8.437,0 12.932,35.532 c 0.287,0.903 0.924,1.354 1.909,1.354 l 0.985,0 0,6.836 -4.803,0 c -1.52,0 -2.639,-0.246 -3.356,-0.739 -0.719,-0.492 -1.324,-1.437 -1.816,-2.832 l -2.71,-7.637 -14.779,0 -2.71,7.637 c -0.492,1.396 -1.088,2.34 -1.785,2.832 -0.699,0.493 -1.808,0.739 -3.326,0.739 l -4.865,0 z m 14.534,-17.859 11.084,0 -3.756,-10.962 -1.725,-6.527 -0.123,0 c -0.616,2.751 -1.191,4.927 -1.725,6.527 l -3.755,10.962 z" />
        <path
           style="fill:#010101"
           inkscape:connector-curvature="0"
           id="path25"
           d="m 499.158,422.469 0,-36.887 -4.003,0 0,-6.836 19.583,0 c 4.064,0 7.349,1.181 9.853,3.541 2.504,2.361 3.757,5.573 3.757,9.638 0,1.847 -0.288,3.531 -0.862,5.05 -0.575,1.519 -1.283,2.709 -2.124,3.571 -0.843,0.862 -1.633,1.53 -2.371,2.001 -0.739,0.473 -1.376,0.771 -1.909,0.894 l 0,0.123 c 0.902,0.411 1.621,1.149 2.155,2.217 l 4.249,8.437 c 0.493,0.945 1.519,1.416 3.079,1.416 l 0.801,0 0,6.836 -4.249,0 c -1.685,0 -2.946,-0.205 -3.787,-0.616 -0.843,-0.409 -1.612,-1.293 -2.31,-2.647 l -5.604,-11.023 c -0.452,-0.82 -0.954,-1.364 -1.508,-1.632 -0.555,-0.267 -1.428,-0.4 -2.617,-0.4 l -4.064,0 0,16.319 -8.069,0 z m 8.068,-23.216 6.404,0 c 2.052,0 3.643,-0.605 4.772,-1.817 1.129,-1.21 1.693,-2.903 1.693,-5.08 0,-2.134 -0.564,-3.797 -1.693,-4.988 -1.13,-1.19 -2.679,-1.785 -4.649,-1.785 l -6.527,0 0,13.67 z" />
        <path
           style="fill:#010101"
           inkscape:connector-curvature="0"
           id="path27"
           d="m 538.016,418.281 0,-32.699 -4.003,0 0,-6.836 18.905,0 c 4.023,0 7.287,0.996 9.792,2.986 2.503,1.992 3.756,4.753 3.756,8.283 0,2.258 -0.514,4.188 -1.539,5.788 -1.027,1.602 -2.279,2.793 -3.757,3.572 l 0,0.123 c 2.258,0.657 3.992,1.95 5.204,3.88 1.21,1.93 1.816,4.064 1.816,6.404 0,4.146 -1.427,7.297 -4.28,9.452 -2.853,2.155 -6.456,3.233 -10.808,3.233 l -10.899,0 c -1.438,0 -2.494,-0.328 -3.172,-0.985 -0.677,-0.655 -1.015,-1.723 -1.015,-3.201 z m 8.067,-21.677 6.896,0 c 1.642,0 2.935,-0.523 3.88,-1.57 0.943,-1.047 1.416,-2.391 1.416,-4.033 0,-1.642 -0.473,-2.956 -1.416,-3.941 -0.945,-0.985 -2.278,-1.478 -4.003,-1.478 l -6.773,0 0,11.022 z m 0,17.674 c 0,0.903 0.451,1.354 1.354,1.354 l 6.281,0 c 1.929,0 3.438,-0.585 4.526,-1.755 1.087,-1.17 1.632,-2.699 1.632,-4.588 0,-1.847 -0.555,-3.355 -1.663,-4.526 -1.108,-1.17 -2.607,-1.755 -4.495,-1.755 l -7.636,0 0,11.27 z" />
        <path
           style="fill:#010101"
           inkscape:connector-curvature="0"
           id="path29"
           d="m 576.812,418.281 0,-32.699 -4.003,0 0,-6.836 26.418,0 c 2.792,0 4.188,1.396 4.188,4.188 l 0,6.65 -7.328,0 0,-2.647 c 0,-0.902 -0.452,-1.354 -1.354,-1.354 l -9.853,0 0,11.454 14.163,0 0,6.835 -14.163,0 0,10.407 c 0,0.903 0.451,1.354 1.354,1.354 l 10.1,0 c 0.902,0 1.354,-0.451 1.354,-1.354 l 0,-2.647 7.328,0 0,6.65 c 0,1.478 -0.339,2.546 -1.017,3.202 -0.677,0.657 -1.734,0.985 -3.171,0.985 l -19.829,0 c -1.479,0 -2.546,-0.328 -3.202,-0.985 -0.657,-0.657 -0.985,-1.725 -0.985,-3.203 z" />
        <path
           style="fill:#010101"
           inkscape:connector-curvature="0"
           id="path31"
           d="m 612.404,422.469 0,-36.887 -4.003,0 0,-6.836 19.583,0 c 4.064,0 7.349,1.181 9.853,3.541 2.504,2.361 3.757,5.573 3.757,9.638 0,1.847 -0.288,3.531 -0.862,5.05 -0.575,1.519 -1.283,2.709 -2.124,3.571 -0.843,0.862 -1.633,1.53 -2.371,2.001 -0.739,0.473 -1.376,0.771 -1.909,0.894 l 0,0.123 c 0.902,0.411 1.621,1.149 2.155,2.217 l 4.249,8.437 c 0.493,0.945 1.519,1.416 3.079,1.416 l 0.801,0 0,6.836 -4.249,0 c -1.685,0 -2.946,-0.205 -3.787,-0.616 -0.843,-0.409 -1.612,-1.293 -2.31,-2.647 l -5.604,-11.023 c -0.452,-0.82 -0.954,-1.364 -1.508,-1.632 -0.555,-0.267 -1.428,-0.4 -2.617,-0.4 l -4.064,0 0,16.319 -8.069,0 z m 8.068,-23.216 6.404,0 c 2.052,0 3.643,-0.605 4.772,-1.817 1.129,-1.21 1.693,-2.903 1.693,-5.08 0,-2.134 -0.564,-3.797 -1.693,-4.988 -1.13,-1.19 -2.679,-1.785 -4.649,-1.785 l -6.527,0 0,13.67 z" />
      </g>
      <path
         style="fill:#f68a31"
         inkscape:connector-curvature="0"
         d="m 188.946,388.172 c -0.662,-6.343 -6.155,-8.421 -13.077,-8.974 l -0.069,-8.8 -5.356,0.043 0.069,8.572 c -1.408,0.01 -2.848,0.048 -4.276,0.088 l -0.068,-8.625 -5.355,0.042 0.07,8.799 c -1.16,0.034 -2.299,0.063 -3.409,0.073 l -0.001,-0.026 -7.386,0.057 0.046,5.722 c 0,0 3.955,-0.108 3.889,-0.036 2.169,-0.018 2.887,1.237 3.102,2.323 l 0.08,10.026 c 0.151,-0.002 0.345,0.003 0.566,0.032 -0.178,0.002 -0.368,10e-4 -0.566,0.006 l 0.112,14.044 c -0.088,0.685 -0.479,1.773 -1.997,1.789 0.069,0.06 -3.895,0.03 -3.895,0.03 l -1.013,6.404 6.972,-0.056 c 1.298,-0.009 2.574,0.004 3.827,-10e-4 l 0.074,8.903 5.351,-0.042 -0.071,-8.808 c 1.47,0.019 2.892,0.021 4.279,0.007 l 0.07,8.765 5.355,-0.043 -0.07,-8.884 c 9.001,-0.589 15.285,-2.909 16.001,-11.373 0.577,-6.814 -2.649,-9.825 -7.773,-11.013 3.091,-1.603 5.01,-4.406 4.519,-9.044 l 0,0 z m -7.341,19.09 c 0.056,6.654 -11.338,5.987 -14.969,6.02 l -0.095,-11.792 c 3.631,-0.03 15.007,-1.167 15.064,5.772 z m -2.626,-16.617 c 0.047,6.05 -9.458,5.421 -12.48,5.445 l -0.087,-10.693 c 3.024,-0.023 12.517,-1.064 12.567,5.248 z"
         id="symbol" />
    </g>
  </g>
</svg>
