<?xml version="1.0" encoding="UTF-8" standalone="no"?>
<svg xmlns:rdf="http://www.w3.org/1999/02/22-rdf-syntax-ns#" xmlns="http://www.w3.org/2000/svg" height="56.701mm" width="56.701mm" version="1.1" xmlns:cc="http://creativecommons.org/ns#" xmlns:dc="http://purl.org/dc/elements/1.1/" viewBox="0 0 200.91 200.909">
<g transform="translate(-310.97 -446.19)">
<g transform="translate(13.773 289.08)">
<path d="m436.73 281.99c-5.636-15.658-24.429-9.626-36.955-4.613-6.89 2.505-5.01 6.89-11.9 1.879-3.133-1.879-5.013-6.892-6.266-10.022-3.758-9.396-1.879-16.287 0.626-25.054 3.76-9.396 7.519-17.539-5.009-20.671-7.518-1.253-22.549 1.252-28.813 3.757-20.044 7.518 0.626 31.319 3.757 45.099l0.627-4.385c-1.253-9.395-5.637-26.933 10.022-15.033 8.771 6.892 5.638 21.923 5.638 31.947 0 16.912 0 30.691 14.404 41.967 10.023 8.14 40.716 16.285 51.362 5.01 4.387-5.011 5.013-42.364 2.507-49.881zm-8.2 13.106h-0.939c-4.227 0-6.104 0-10.333 0.47s-14.565 4.228-9.864-2.818c2.348-4.229 12.212-7.048 16.439-6.107 6.108 0.938 14.095 7.515 4.697 8.455z" fill="#030303"/>
<path d="m341.53 218.91c-0.637-8.306 6.072-15.333 10.863-20.764 12.458-13.417 32.583-21.083 51.112-21.722-8.307 4.472-14.375 11.82-19.487 19.167 14.694-9.265 28.431-11.5 45.681-11.5-7.985 1.916-15.013 6.069-21.082 11.179 12.138-1.915 23-1.596 34.182 4.155-8.945 0.638-12.46 0.958-19.81 6.707 4.795 0.638 11.501-0.319 15.656 3.515 5.11 4.791 1.917 14.376 0.639 20.125-1.279-2.875-1.918-11.182-4.794-12.777-3.193-1.598-8.303 3.834-12.458 3.514-8.306-0.639-16.292-6.07-25.236-6.709-5.504-0.599-10.701 3.804-15.819 5.009-8.553 2.013-16.878 1.829-26.028 3.789-4.954 1.062-9.777 3.519-14.055 4.435l0.636-8.123z" fill="#030303"/>
<g fill="#f68a31">
<path d="m403.32 256.67-0.271 3.365c1.193-0.032 4.928 0.089 5.082-1.81 0.161-1.98-3.615-1.587-4.811-1.555z"/>
<path d="m407.7 253.49c0.144-1.801-3.009-1.446-4.006-1.423l-0.248 3.053c0.998-0.024 4.112 0.1 4.254-1.63z"/>
<path d="m404.01 244.63c-6.194 0-11.218 5.293-11.218 11.825 0 6.533 5.023 11.826 11.218 11.826s11.217-5.293 11.217-11.826c0-6.532-5.023-11.825-11.217-11.825zm7.584 13.808c-0.453 2.42-2.583 3.118-5.562 3.342l-0.204 2.535-1.769 0.046 0.206-2.502c-0.459 0.011-0.928 0.02-1.409 0.023l-0.202 2.514-1.766 0.044 0.203-2.54c-0.409 0.009-0.831 0.011-1.256 0.023l-2.298 0.059 0.499-1.834s1.301-0.017 1.281-0.033c0.501-0.012 0.658-0.326 0.705-0.521l0.323-4.009c0.066-0.003 0.13-0.005 0.189-0.005-0.074-0.009-0.138-0.01-0.189-0.006l0.234-2.862c-0.042-0.308-0.246-0.661-0.962-0.645 0.023-0.021-1.281 0.035-1.281 0.035l0.129-1.636 2.436-0.061v0.011c0.366-0.012 0.741-0.028 1.124-0.043l0.204-2.512 1.765-0.045-0.2 2.465c0.471-0.022 0.947-0.043 1.411-0.053l0.197-2.448 1.767-0.043-0.205 2.511c2.266 0.115 4.019 0.676 4.074 2.482 0.041 1.319-0.66 2.133-1.72 2.608 1.657 0.311 2.642 1.15 2.276 3.1z"/>
</g>
<path d="m387.39 241.49c0.337-0.257 0.675-0.498 1.02-0.717 0.345-0.213 0.686-0.448 1.036-0.64l1.049-0.583c0.349-0.198 0.708-0.35 1.062-0.526l1.065-0.51 1.083-0.441c0.717-0.301 1.44-0.589 2.171-0.831l0.08-0.027 0.581-0.031c1.643-0.087 3.282-0.096 4.916-0.017 0.814 0.046 1.632 0.091 2.446 0.175 0.816 0.069 1.629 0.184 2.44 0.316l1.22 0.185c0.406 0.049 0.81 0.16 1.215 0.243l1.215 0.264c0.405 0.076 0.809 0.209 1.212 0.319l1.211 0.345 1.206 0.418c0.402 0.127 0.804 0.313 1.205 0.473 0.399 0.16 0.798 0.354 1.197 0.562l-0.017 0.299c-1.633-0.06-3.269-0.089-4.901-0.173l-4.904-0.221-4.901-0.224-4.898-0.29 0.071-0.006-4.501 0.989c-1.499 0.334-3.007 0.628-4.51 0.942l-0.069-0.293z" fill="#010101"/>
<path d="m437.89 237.27c-1.126-0.061-5.243-0.068-6.362-0.01-0.581 0.035-1.162 0.069-1.738 0.134-0.579 0.055-1.156 0.142-1.731 0.244l-0.867 0.141c-0.288 0.039-0.575 0.124-0.861 0.188l-0.861 0.201c-0.29 0.059-0.574 0.162-0.861 0.245l-0.862 0.265-0.857 0.322c-0.286 0.1-0.566 0.241-0.854 0.362-0.285 0.124-0.565 0.272-0.852 0.431l0.015 0.231c1.156-0.047 2.317-0.068 3.479-0.133l3.482-0.171 3.478-0.172 6.253-0.208v-2.07z" fill="#010101"/>
<path d="m397.66 358.02c-55.391 0-100.46-45.063-100.46-100.45 0-55.391 45.064-100.46 100.46-100.46 55.391 0 100.46 45.064 100.46 100.46 0 55.391-45.064 100.45-100.46 100.45zm0-190.91c-49.877 0-90.455 40.578-90.455 90.455s40.578 90.454 90.455 90.454 90.455-40.577 90.455-90.454-40.578-90.455-90.455-90.455z" fill="#f68a31"/>
</g>
</g>
</svg>
