<?xml version="1.0" encoding="UTF-8" standalone="no"?>
<!-- Generator: Adobe Illustrator 16.0.0, SVG Export Plug-In . SVG Version: 6.00 Build 0)  -->
<svg id="logo_1_" xmlns:rdf="http://www.w3.org/1999/02/22-rdf-syntax-ns#" xmlns="http://www.w3.org/2000/svg" enable-background="new 0 0 800 600" xml:space="preserve" height="271.49" viewBox="0 0 494.52399 271.49301" width="494.52" version="1.1" y="0px" x="0px" xmlns:cc="http://creativecommons.org/ns#" xmlns:dc="http://purl.org/dc/elements/1.1/"><metadata id="metadata57"><rdf:RDF><cc:Work rdf:about=""><dc:format>image/svg+xml</dc:format><dc:type rdf:resource="http://purl.org/dc/dcmitype/StillImage"/><dc:title/></cc:Work></rdf:RDF></metadata><g id="bitcoinbarber" transform="translate(-150.09 -157.11)"><g id="text"><g id="g5" fill="#f68a31"><path id="path7" d="m193.96 422.47v-6.836h4.373v-30.051h-4.373v-6.836h16.381v6.836h-4.372v30.051h4.372v6.836h-16.381z"/><path id="path9" d="m228.76 422.47v-36.887h-6.712c-0.903 0-1.355 0.452-1.355 1.354v2.647h-7.082v-6.896c0-1.437 0.287-2.453 0.862-3.049 0.575-0.595 1.602-0.893 3.079-0.893h30.483c1.478 0 2.503 0.298 3.079 0.893 0.574 0.596 0.862 1.612 0.862 3.049v6.896h-7.082v-2.647c0-0.902-0.452-1.354-1.355-1.354h-6.712v36.887h-8.067z"/><path id="path11" d="m253.58 400.24c0-6.322 2.114-11.608 6.343-15.857 4.228-4.249 9.503-6.374 15.826-6.374 1.56 0 3.223 0.176 4.988 0.523 1.765 0.35 3.55 0.873 5.357 1.57 1.806 0.699 3.294 1.715 4.465 3.049 1.17 1.334 1.755 2.885 1.755 4.649v4.864h-7.328v-2.462c0-1.478-0.955-2.627-2.864-3.448s-3.972-1.231-6.189-1.231c-4.024 0-7.359 1.334-10.007 4.002-2.648 2.67-3.972 6.241-3.972 10.716 0 4.27 1.375 7.913 4.126 10.931 2.75 3.018 6.117 4.525 10.099 4.525 1.56 0 3.068-0.194 4.526-0.585 1.457-0.39 2.688-0.871 3.695-1.446 1.005-0.575 1.909-1.149 2.709-1.725 0.8-0.574 1.386-1.047 1.755-1.416l0.554-0.616 4.25 5.788c-0.165 0.206-0.411 0.473-0.739 0.801-0.329 0.329-1.068 0.924-2.217 1.786-1.15 0.862-2.351 1.632-3.603 2.31-1.253 0.677-2.885 1.283-4.896 1.816-2.012 0.533-4.064 0.801-6.158 0.801-6.61 0-12.008-2.187-16.196-6.559s-6.279-9.843-6.279-16.412z"/><path id="path13" d="m296.93 400.3c0-6.281 2.165-11.567 6.497-15.857 4.331-4.289 9.699-6.436 16.104-6.436s11.771 2.146 16.104 6.436c4.331 4.29 6.497 9.576 6.497 15.857 0 6.445-2.166 11.875-6.497 16.288-4.332 4.413-9.699 6.62-16.104 6.62s-11.772-2.207-16.104-6.62-6.497-9.843-6.497-16.288zm8.375 0c0 4.352 1.375 8.005 4.126 10.961 2.75 2.956 6.117 4.434 10.099 4.434 3.981 0 7.348-1.478 10.099-4.434 2.75-2.956 4.126-6.609 4.126-10.961 0-4.146-1.376-7.646-4.126-10.5-2.751-2.853-6.118-4.279-10.099-4.279-3.982 0-7.349 1.427-10.099 4.279-2.751 2.854-4.126 6.353-4.126 10.5z"/><path id="path15" d="m346.32 422.47v-6.836h4.373v-30.051h-4.373v-6.836h16.381v6.836h-4.372v30.051h4.372v6.836h-16.381z"/><path id="path17" d="m367.13 422.47v-6.836h2.648c0.903 0 1.355-0.451 1.355-1.354v-35.532h7.267l16.565 24.201c0.493 0.739 1.047 1.622 1.663 2.648s1.087 1.868 1.416 2.524l0.554 0.985h0.124c-0.288-2.422-0.431-4.474-0.431-6.158v-20.014c0-1.437 0.328-2.494 0.985-3.172 0.656-0.677 1.724-1.016 3.203-1.016h7.882v6.836h-2.647c-0.904 0-1.355 0.452-1.355 1.354v35.532h-7.205l-16.627-24.14c-0.493-0.739-1.047-1.621-1.663-2.648-0.616-1.025-1.088-1.867-1.416-2.524l-0.554-0.985h-0.124c0.287 2.423 0.431 4.476 0.431 6.158v19.952c0 1.478-0.329 2.546-0.985 3.202-0.657 0.657-1.724 0.985-3.202 0.985h-7.884z"/></g><g id="g19" fill="#010101"><path id="path21" d="m418.86 418.28v-32.699h-4.004v-6.836h18.906c4.022 0 7.286 0.996 9.791 2.986 2.504 1.992 3.757 4.753 3.757 8.283 0 2.258-0.515 4.188-1.54 5.788-1.026 1.602-2.278 2.793-3.756 3.572v0.123c2.257 0.657 3.992 1.95 5.203 3.88s1.816 4.064 1.816 6.404c0 4.146-1.427 7.297-4.279 9.452-2.854 2.155-6.457 3.233-10.808 3.233h-10.899c-1.438 0-2.494-0.328-3.172-0.985-0.677-0.655-1.015-1.723-1.015-3.201zm8.067-21.677h6.897c1.642 0 2.935-0.523 3.879-1.57s1.417-2.391 1.417-4.033-0.473-2.956-1.417-3.941-2.278-1.478-4.002-1.478h-6.774v11.022zm0 17.674c0 0.903 0.451 1.354 1.354 1.354h6.281c1.93 0 3.438-0.585 4.526-1.755s1.632-2.699 1.632-4.588c0-1.847-0.554-3.355-1.662-4.526-1.108-1.17-2.607-1.755-4.496-1.755h-7.636v11.27z"/><path id="path23" d="m452.23 422.47v-6.836h0.985c0.985 0 1.621-0.451 1.908-1.354l12.994-35.532h8.437l12.932 35.532c0.287 0.903 0.924 1.354 1.909 1.354h0.985v6.836h-4.803c-1.52 0-2.639-0.246-3.356-0.739-0.719-0.492-1.324-1.437-1.816-2.832l-2.71-7.637h-14.779l-2.71 7.637c-0.492 1.396-1.088 2.34-1.785 2.832-0.699 0.493-1.808 0.739-3.326 0.739h-4.865zm14.534-17.859h11.084l-3.756-10.962-1.725-6.527h-0.123c-0.616 2.751-1.191 4.927-1.725 6.527l-3.755 10.962z"/><path id="path25" d="m499.16 422.47v-36.887h-4.003v-6.836h19.583c4.064 0 7.349 1.181 9.853 3.541 2.504 2.361 3.757 5.573 3.757 9.638 0 1.847-0.288 3.531-0.862 5.05-0.575 1.519-1.283 2.709-2.124 3.571-0.843 0.862-1.633 1.53-2.371 2.001-0.739 0.473-1.376 0.771-1.909 0.894v0.123c0.902 0.411 1.621 1.149 2.155 2.217l4.249 8.437c0.493 0.945 1.519 1.416 3.079 1.416h0.801v6.836h-4.249c-1.685 0-2.946-0.205-3.787-0.616-0.843-0.409-1.612-1.293-2.31-2.647l-5.604-11.023c-0.452-0.82-0.954-1.364-1.508-1.632-0.555-0.267-1.428-0.4-2.617-0.4h-4.064v16.319h-8.069zm8.068-23.216h6.404c2.052 0 3.643-0.605 4.772-1.817 1.129-1.21 1.693-2.903 1.693-5.08 0-2.134-0.564-3.797-1.693-4.988-1.13-1.19-2.679-1.785-4.649-1.785h-6.527v13.67z"/><path id="path27" d="m538.02 418.28v-32.699h-4.003v-6.836h18.905c4.023 0 7.287 0.996 9.792 2.986 2.503 1.992 3.756 4.753 3.756 8.283 0 2.258-0.514 4.188-1.539 5.788-1.027 1.602-2.279 2.793-3.757 3.572v0.123c2.258 0.657 3.992 1.95 5.204 3.88 1.21 1.93 1.816 4.064 1.816 6.404 0 4.146-1.427 7.297-4.28 9.452s-6.456 3.233-10.808 3.233h-10.899c-1.438 0-2.494-0.328-3.172-0.985-0.677-0.655-1.015-1.723-1.015-3.201zm8.067-21.677h6.896c1.642 0 2.935-0.523 3.88-1.57 0.943-1.047 1.416-2.391 1.416-4.033s-0.473-2.956-1.416-3.941c-0.945-0.985-2.278-1.478-4.003-1.478h-6.773v11.022zm0 17.674c0 0.903 0.451 1.354 1.354 1.354h6.281c1.929 0 3.438-0.585 4.526-1.755 1.087-1.17 1.632-2.699 1.632-4.588 0-1.847-0.555-3.355-1.663-4.526-1.108-1.17-2.607-1.755-4.495-1.755h-7.636v11.27z"/><path id="path29" d="m576.81 418.28v-32.699h-4.003v-6.836h26.418c2.792 0 4.188 1.396 4.188 4.188v6.65h-7.328v-2.647c0-0.902-0.452-1.354-1.354-1.354h-9.853v11.454h14.163v6.835h-14.163v10.407c0 0.903 0.451 1.354 1.354 1.354h10.1c0.902 0 1.354-0.451 1.354-1.354v-2.647h7.328v6.65c0 1.478-0.339 2.546-1.017 3.202-0.677 0.657-1.734 0.985-3.171 0.985h-19.829c-1.479 0-2.546-0.328-3.202-0.985-0.657-0.657-0.985-1.725-0.985-3.203z"/><path id="path31" d="m612.4 422.47v-36.887h-4.003v-6.836h19.583c4.064 0 7.349 1.181 9.853 3.541 2.504 2.361 3.757 5.573 3.757 9.638 0 1.847-0.288 3.531-0.862 5.05-0.575 1.519-1.283 2.709-2.124 3.571-0.843 0.862-1.633 1.53-2.371 2.001-0.739 0.473-1.376 0.771-1.909 0.894v0.123c0.902 0.411 1.621 1.149 2.155 2.217l4.249 8.437c0.493 0.945 1.519 1.416 3.079 1.416h0.801v6.836h-4.249c-1.685 0-2.946-0.205-3.787-0.616-0.843-0.409-1.612-1.293-2.31-2.647l-5.604-11.023c-0.452-0.82-0.954-1.364-1.508-1.632-0.555-0.267-1.428-0.4-2.617-0.4h-4.064v16.319h-8.069zm8.068-23.216h6.404c2.052 0 3.643-0.605 4.772-1.817 1.129-1.21 1.693-2.903 1.693-5.08 0-2.134-0.564-3.797-1.693-4.988-1.13-1.19-2.679-1.785-4.649-1.785h-6.527v13.67z"/></g><path id="symbol" fill="#f68a31" d="m188.95 388.17c-0.662-6.343-6.155-8.421-13.077-8.974l-0.069-8.8-5.356 0.043 0.069 8.572c-1.408 0.01-2.848 0.048-4.276 0.088l-0.068-8.625-5.355 0.042 0.07 8.799c-1.16 0.034-2.299 0.063-3.409 0.073l-0.001-0.026-7.386 0.057 0.046 5.722s3.955-0.108 3.889-0.036c2.169-0.018 2.887 1.237 3.102 2.323l0.08 10.026c0.151-0.002 0.345 0.003 0.566 0.032-0.178 0.002-0.368 0.001-0.566 0.006l0.112 14.044c-0.088 0.685-0.479 1.773-1.997 1.789 0.069 0.06-3.895 0.03-3.895 0.03l-1.013 6.404 6.972-0.056c1.298-0.009 2.574 0.004 3.827-0.001l0.074 8.903 5.351-0.042-0.071-8.808c1.47 0.019 2.892 0.021 4.279 0.007l0.07 8.765 5.355-0.043-0.07-8.884c9.001-0.589 15.285-2.909 16.001-11.373 0.577-6.814-2.649-9.825-7.773-11.013 3.091-1.603 5.01-4.406 4.519-9.044zm-7.341 19.09c0.056 6.654-11.338 5.987-14.969 6.02l-0.095-11.792c3.631-0.03 15.007-1.167 15.064 5.772zm-2.626-16.617c0.047 6.05-9.458 5.421-12.48 5.445l-0.087-10.693c3.024-0.023 12.517-1.064 12.567 5.248z"/></g><g id="man"><path id="path35" fill="#030303" d="m436.73 281.99c-5.636-15.658-24.429-9.626-36.955-4.613-6.89 2.505-5.01 6.89-11.9 1.879-3.133-1.879-5.013-6.892-6.266-10.022-3.758-9.396-1.879-16.287 0.626-25.054 3.76-9.396 7.519-17.539-5.009-20.671-7.518-1.253-22.549 1.252-28.813 3.757-20.044 7.518 0.626 31.319 3.757 45.099l0.627-4.385c-1.253-9.395-5.637-26.933 10.022-15.033 8.771 6.892 5.638 21.923 5.638 31.947 0 16.912 0 30.691 14.404 41.967 10.023 8.14 40.716 16.285 51.362 5.01 4.387-5.011 5.013-42.364 2.507-49.881zm-8.2 13.106h-0.939c-4.227 0-6.104 0-10.333 0.47s-14.565 4.228-9.864-2.818c2.348-4.229 12.212-7.048 16.439-6.107 6.108 0.938 14.095 7.515 4.697 8.455z"/><path id="path37" fill="#030303" d="m341.53 218.91c-0.637-8.306 6.072-15.333 10.863-20.764 12.458-13.417 32.583-21.083 51.112-21.722-8.307 4.472-14.375 11.82-19.487 19.167 14.694-9.265 28.431-11.5 45.681-11.5-7.985 1.916-15.013 6.069-21.082 11.179 12.138-1.915 23-1.596 34.182 4.155-8.945 0.638-12.46 0.958-19.81 6.707 4.795 0.638 11.501-0.319 15.656 3.515 5.11 4.791 1.917 14.376 0.639 20.125-1.279-2.875-1.918-11.182-4.794-12.777-3.193-1.598-8.303 3.834-12.458 3.514-8.306-0.639-16.292-6.07-25.236-6.709-5.504-0.599-10.701 3.804-15.819 5.009-8.553 2.013-16.878 1.829-26.028 3.789-4.954 1.062-9.777 3.519-14.055 4.435l0.636-8.123z"/><g id="g39" fill="#f68a31"><path id="path41" d="m403.32 256.67-0.271 3.365c1.193-0.032 4.928 0.089 5.082-1.81 0.161-1.98-3.615-1.587-4.811-1.555z"/><path id="path43" d="m407.7 253.49c0.144-1.801-3.009-1.446-4.006-1.423l-0.248 3.053c0.998-0.024 4.112 0.1 4.254-1.63z"/><path id="path45" d="m404.01 244.63c-6.194 0-11.218 5.293-11.218 11.825 0 6.533 5.023 11.826 11.218 11.826s11.217-5.293 11.217-11.826c0-6.532-5.023-11.825-11.217-11.825zm7.584 13.808c-0.453 2.42-2.583 3.118-5.562 3.342l-0.204 2.535-1.769 0.046 0.206-2.502c-0.459 0.011-0.928 0.02-1.409 0.023l-0.202 2.514-1.766 0.044 0.203-2.54c-0.409 0.009-0.831 0.011-1.256 0.023l-2.298 0.059 0.499-1.834s1.301-0.017 1.281-0.033c0.501-0.012 0.658-0.326 0.705-0.521l0.323-4.009c0.066-0.003 0.13-0.005 0.189-0.005-0.074-0.009-0.138-0.01-0.189-0.006l0.234-2.862c-0.042-0.308-0.246-0.661-0.962-0.645 0.023-0.021-1.281 0.035-1.281 0.035l0.129-1.636 2.436-0.061v0.011c0.366-0.012 0.741-0.028 1.124-0.043l0.204-2.512 1.765-0.045-0.2 2.465c0.471-0.022 0.947-0.043 1.411-0.053l0.197-2.448 1.767-0.043-0.205 2.511c2.266 0.115 4.019 0.676 4.074 2.482 0.041 1.319-0.66 2.133-1.72 2.608 1.657 0.311 2.642 1.15 2.276 3.1z"/></g><path id="path47" fill="#010101" d="m387.39 241.49c0.337-0.257 0.675-0.498 1.02-0.717 0.345-0.213 0.686-0.448 1.036-0.64l1.049-0.583c0.349-0.198 0.708-0.35 1.062-0.526l1.065-0.51 1.083-0.441c0.717-0.301 1.44-0.589 2.171-0.831l0.08-0.027 0.581-0.031c1.643-0.087 3.282-0.096 4.916-0.017 0.814 0.046 1.632 0.091 2.446 0.175 0.816 0.069 1.629 0.184 2.44 0.316l1.22 0.185c0.406 0.049 0.81 0.16 1.215 0.243l1.215 0.264c0.405 0.076 0.809 0.209 1.212 0.319l1.211 0.345 1.206 0.418c0.402 0.127 0.804 0.313 1.205 0.473 0.399 0.16 0.798 0.354 1.197 0.562l-0.017 0.299c-1.633-0.06-3.269-0.089-4.901-0.173l-4.904-0.221-4.901-0.224-4.898-0.29 0.071-0.006-4.501 0.989c-1.499 0.334-3.007 0.628-4.51 0.942l-0.069-0.293z"/><path id="path49" fill="#010101" d="m437.89 237.27c-1.126-0.061-5.243-0.068-6.362-0.01-0.581 0.035-1.162 0.069-1.738 0.134-0.579 0.055-1.156 0.142-1.731 0.244l-0.867 0.141c-0.288 0.039-0.575 0.124-0.861 0.188l-0.861 0.201c-0.29 0.059-0.574 0.162-0.861 0.245l-0.862 0.265-0.857 0.322c-0.286 0.1-0.566 0.241-0.854 0.362-0.285 0.124-0.565 0.272-0.852 0.431l0.015 0.231c1.156-0.047 2.317-0.068 3.479-0.133l3.482-0.171 3.478-0.172 6.253-0.208v-2.07z"/><path id="path51" fill="#f68a31" d="m397.66 358.02c-55.391 0-100.46-45.063-100.46-100.45 0-55.391 45.064-100.46 100.46-100.46 55.391 0 100.46 45.064 100.46 100.46 0 55.391-45.064 100.45-100.46 100.45zm0-190.91c-49.877 0-90.455 40.578-90.455 90.455s40.578 90.454 90.455 90.454 90.455-40.577 90.455-90.454-40.578-90.455-90.455-90.455z"/></g></g></svg>
