<?xml version="1.0" encoding="UTF-8" standalone="no"?>
<svg
   xmlns:dc="http://purl.org/dc/elements/1.1/"
   xmlns:cc="http://creativecommons.org/ns#"
   xmlns:rdf="http://www.w3.org/1999/02/22-rdf-syntax-ns#"
   xmlns:svg="http://www.w3.org/2000/svg"
   xmlns="http://www.w3.org/2000/svg"
   xmlns:sodipodi="http://sodipodi.sourceforge.net/DTD/sodipodi-0.dtd"
   xmlns:inkscape="http://www.inkscape.org/namespaces/inkscape"
   height="56.701mm"
   width="56.701mm"
   version="1.1"
   viewBox="0 0 200.91 200.909"
   id="svg24"
   sodipodi:docname="bitcoin-barber-head-grayscale-logo.svg"
   inkscape:version="0.92.3 (2405546, 2018-03-11)">
  <metadata
     id="metadata30">
    <rdf:RDF>
      <cc:Work
         rdf:about="">
        <dc:format>image/svg+xml</dc:format>
        <dc:type
           rdf:resource="http://purl.org/dc/dcmitype/StillImage" />
        <dc:title></dc:title>
      </cc:Work>
    </rdf:RDF>
  </metadata>
  <defs
     id="defs28" />
  <sodipodi:namedview
     pagecolor="#ffffff"
     bordercolor="#666666"
     borderopacity="1"
     objecttolerance="10"
     gridtolerance="10"
     guidetolerance="10"
     inkscape:pageopacity="0"
     inkscape:pageshadow="2"
     inkscape:window-width="3840"
     inkscape:window-height="2088"
     id="namedview26"
     showgrid="false"
     inkscape:zoom="6.2295798"
     inkscape:cx="102.44369"
     inkscape:cy="87.162077"
     inkscape:window-x="0"
     inkscape:window-y="35"
     inkscape:window-maximized="1"
     inkscape:current-layer="svg24" />
  <g
     id="g868">
    <path
       style="fill:#030303"
       inkscape:connector-curvature="0"
       id="path2"
       d="m 139.533,124.88 c -5.636,-15.658 -24.429,-9.626 -36.955,-4.613 -6.89,2.505 -5.01,6.89 -11.9,1.879 -3.133,-1.879 -5.013,-6.892 -6.266,-10.022 -3.758,-9.396 -1.879,-16.287 0.626,-25.054 3.76,-9.396 7.519,-17.539 -5.009,-20.671 -7.518,-1.253 -22.549,1.252 -28.813,3.757 -20.044,7.518 0.626,31.319 3.757,45.099 L 55.6,110.87 c -1.253,-9.395 -5.637,-26.933 10.022,-15.033 8.771,6.892 5.638,21.923 5.638,31.947 0,16.912 0,30.691 14.404,41.967 10.023,8.14 40.716,16.285 51.362,5.01 4.387,-5.011 5.013,-42.364 2.507,-49.881 z m -8.2,13.106 h -0.939 c -4.227,0 -6.104,0 -10.333,0.47 -4.229,0.47 -14.565,4.228 -9.864,-2.818 2.348,-4.229 12.212,-7.048 16.439,-6.107 6.108,0.938 14.095,7.515 4.697,8.455 z" />
    <path
       style="fill:#030303"
       inkscape:connector-curvature="0"
       id="path4"
       d="M 44.333,61.8 C 43.696,53.494 50.405,46.467 55.196,41.036 67.654,27.619 87.779,19.953 106.308,19.314 c -8.307,4.472 -14.375,11.82 -19.487,19.167 14.694,-9.265 28.431,-11.5 45.681,-11.5 -7.985,1.916 -15.013,6.069 -21.082,11.179 12.138,-1.915 23,-1.596 34.182,4.155 -8.945,0.638 -12.46,0.958 -19.81,6.707 4.795,0.638 11.501,-0.319 15.656,3.515 5.11,4.791 1.917,14.376 0.639,20.125 -1.279,-2.875 -1.918,-11.182 -4.794,-12.777 -3.193,-1.598 -8.303,3.834 -12.458,3.514 -8.306,-0.639 -16.292,-6.07 -25.236,-6.709 -5.504,-0.599 -10.701,3.804 -15.819,5.009 -8.553,2.013 -16.878,1.829 -26.028,3.789 -4.954,1.062 -9.777,3.519 -14.055,4.435 z" />
    <g
       transform="translate(-297.197,-157.11)"
       style="fill:#949393;fill-opacity:1"
       id="g12">
      <path
         style="fill:#949393;fill-opacity:1"
         inkscape:connector-curvature="0"
         id="path6"
         d="m 403.32,256.67 -0.271,3.365 c 1.193,-0.032 4.928,0.089 5.082,-1.81 0.161,-1.98 -3.615,-1.587 -4.811,-1.555 z" />
      <path
         style="fill:#949393;fill-opacity:1"
         inkscape:connector-curvature="0"
         id="path8"
         d="m 407.7,253.49 c 0.144,-1.801 -3.009,-1.446 -4.006,-1.423 l -0.248,3.053 c 0.998,-0.024 4.112,0.1 4.254,-1.63 z" />
      <path
         style="fill:#949393;fill-opacity:1"
         inkscape:connector-curvature="0"
         id="path10"
         d="m 404.01,244.63 c -6.194,0 -11.218,5.293 -11.218,11.825 0,6.533 5.023,11.826 11.218,11.826 6.195,0 11.217,-5.293 11.217,-11.826 0,-6.532 -5.023,-11.825 -11.217,-11.825 z m 7.584,13.808 c -0.453,2.42 -2.583,3.118 -5.562,3.342 l -0.204,2.535 -1.769,0.046 0.206,-2.502 c -0.459,0.011 -0.928,0.02 -1.409,0.023 l -0.202,2.514 -1.766,0.044 0.203,-2.54 c -0.409,0.009 -0.831,0.011 -1.256,0.023 l -2.298,0.059 0.499,-1.834 c 0,0 1.301,-0.017 1.281,-0.033 0.501,-0.012 0.658,-0.326 0.705,-0.521 l 0.323,-4.009 c 0.066,-0.003 0.13,-0.005 0.189,-0.005 -0.074,-0.009 -0.138,-0.01 -0.189,-0.006 l 0.234,-2.862 c -0.042,-0.308 -0.246,-0.661 -0.962,-0.645 0.023,-0.021 -1.281,0.035 -1.281,0.035 l 0.129,-1.636 2.436,-0.061 v 0.011 c 0.366,-0.012 0.741,-0.028 1.124,-0.043 l 0.204,-2.512 1.765,-0.045 -0.2,2.465 c 0.471,-0.022 0.947,-0.043 1.411,-0.053 l 0.197,-2.448 1.767,-0.043 -0.205,2.511 c 2.266,0.115 4.019,0.676 4.074,2.482 0.041,1.319 -0.66,2.133 -1.72,2.608 1.657,0.311 2.642,1.15 2.276,3.1 z" />
    </g>
    <path
       style="fill:#010101"
       inkscape:connector-curvature="0"
       id="path14"
       d="m 90.193,84.38 c 0.337,-0.257 0.675,-0.498 1.02,-0.717 0.345,-0.213 0.686,-0.448 1.036,-0.64 l 1.049,-0.583 c 0.349,-0.198 0.708,-0.35 1.062,-0.526 l 1.065,-0.51 1.083,-0.441 c 0.717,-0.301 1.44,-0.589 2.171,-0.831 l 0.08,-0.027 0.581,-0.031 c 1.643,-0.087 3.282,-0.096 4.916,-0.017 0.814,0.046 1.632,0.091 2.446,0.175 0.816,0.069 1.629,0.184 2.44,0.316 l 1.22,0.185 c 0.406,0.049 0.81,0.16 1.215,0.243 l 1.215,0.264 c 0.405,0.076 0.809,0.209 1.212,0.319 l 1.211,0.345 1.206,0.418 c 0.402,0.127 0.804,0.313 1.205,0.473 0.399,0.16 0.798,0.354 1.197,0.562 l -0.017,0.299 c -1.633,-0.06 -3.269,-0.089 -4.901,-0.173 l -4.904,-0.221 -4.901,-0.224 -4.898,-0.29 0.071,-0.006 -4.501,0.989 c -1.499,0.334 -3.007,0.628 -4.51,0.942 z" />
    <path
       style="fill:#010101"
       inkscape:connector-curvature="0"
       id="path16"
       d="m 140.693,80.16 c -1.126,-0.061 -5.243,-0.068 -6.362,-0.01 -0.581,0.035 -1.162,0.069 -1.738,0.134 -0.579,0.055 -1.156,0.142 -1.731,0.244 l -0.867,0.141 c -0.288,0.039 -0.575,0.124 -0.861,0.188 l -0.861,0.201 c -0.29,0.059 -0.574,0.162 -0.861,0.245 l -0.862,0.265 -0.857,0.322 c -0.286,0.1 -0.566,0.241 -0.854,0.362 -0.285,0.124 -0.565,0.272 -0.852,0.431 l 0.015,0.231 c 1.156,-0.047 2.317,-0.068 3.479,-0.133 l 3.482,-0.171 3.478,-0.172 6.253,-0.208 v -2.07 z" />
    <path
       style="fill:#939393;fill-opacity:1"
       inkscape:connector-curvature="0"
       id="path18"
       d="M 100.463,200.91 C 45.072,200.91 0.003,155.847 0.003,100.46 0.003,45.069 45.067,0 100.463,0 c 55.391,0 100.46,45.064 100.46,100.46 0,55.391 -45.064,100.45 -100.46,100.45 z m 0,-190.91 c -49.877,0 -90.455,40.578 -90.455,90.455 0,49.877 40.578,90.454 90.455,90.454 49.877,0 90.455,-40.577 90.455,-90.454 C 190.918,50.578 150.34,10 100.463,10 Z" />
  </g>
</svg>
