<?xml version="1.0" standalone="no"?>
<!DOCTYPE svg PUBLIC "-//W3C//DTD SVG 20010904//EN"
 "http://www.w3.org/TR/2001/REC-SVG-20010904/DTD/svg10.dtd">
<svg version="1.0" xmlns="http://www.w3.org/2000/svg"
 width="700.000000pt" height="700.000000pt" viewBox="0 0 700.000000 700.000000"
 preserveAspectRatio="xMidYMid meet">
<metadata>
Created by potrace 1.11, written by Peter Selinger 2001-2013
</metadata>
<g transform="translate(0.000000,700.000000) scale(0.100000,-0.100000)"
fill="#000000" stroke="none">
<path d="M3298 6995 c-1 -1 -41 -5 -88 -9 -100 -7 -225 -22 -295 -36 -27 -5
-61 -12 -75 -14 -137 -25 -259 -56 -405 -103 -100 -32 -155 -52 -310 -115
-240 -97 -654 -349 -836 -508 -10 -8 -42 -35 -73 -60 -91 -75 -345 -338 -439
-455 -94 -117 -238 -325 -304 -440 -255 -440 -420 -965 -461 -1465 -9 -114 -8
-506 1 -600 37 -361 114 -678 239 -990 52 -129 168 -368 213 -439 14 -23 25
-43 25 -46 0 -10 159 -244 227 -332 102 -135 156 -196 308 -348 156 -156 166
-166 315 -285 90 -72 362 -260 376 -260 2 0 22 -11 43 -24 44 -28 270 -143
346 -175 79 -35 87 -38 135 -56 242 -93 590 -182 782 -201 35 -3 66 -8 69 -9
29 -18 535 -26 709 -12 105 9 111 9 290 38 544 89 1093 330 1547 681 208 160
342 289 553 532 57 66 152 193 227 306 320 480 516 1039 571 1630 20 222 2
689 -34 864 -2 11 -7 37 -10 56 -29 185 -104 447 -194 675 -204 516 -550 999
-979 1365 -35 30 -69 60 -75 65 -25 23 -237 174 -311 221 -259 165 -524 291
-808 383 -252 81 -390 110 -747 157 -47 6 -526 15 -532 9z m517 -358 c11 -3
49 -8 85 -12 179 -20 438 -80 627 -146 468 -164 856 -409 1208 -764 279 -280
492 -591 646 -945 28 -63 55 -124 59 -135 31 -69 102 -300 125 -405 2 -8 10
-44 18 -80 14 -61 20 -92 32 -180 3 -19 7 -44 9 -55 14 -62 21 -207 21 -415 0
-257 -7 -350 -41 -540 -163 -918 -707 -1701 -1519 -2183 -81 -48 -292 -152
-397 -196 -216 -89 -535 -176 -723 -197 -27 -3 -55 -7 -62 -9 -83 -26 -658
-27 -813 0 -14 2 -38 6 -55 9 -16 2 -48 7 -70 11 -332 54 -726 196 -1035 373
-52 30 -313 202 -320 211 -3 4 -25 22 -50 41 -183 142 -368 325 -525 520 -74
93 -203 280 -241 350 -10 19 -24 42 -30 50 -26 32 -145 281 -192 401 -112 279
-176 547 -209 869 -10 97 -10 483 0 580 19 184 26 229 58 375 12 50 22 97 24
105 25 118 104 346 172 499 210 471 510 858 934 1206 13 10 66 50 118 88 391
283 880 481 1364 553 15 2 42 6 60 9 17 3 70 8 117 11 47 4 87 9 90 11 6 5
489 -4 515 -10z"/>
<path d="M3597 6323 c-1 0 -27 -4 -57 -7 -288 -33 -476 -78 -745 -178 -143
-53 -365 -166 -496 -254 -57 -38 -106 -71 -109 -74 -3 -3 -27 -23 -55 -45 -75
-60 -111 -93 -184 -169 -92 -96 -88 -92 -162 -181 -170 -206 -238 -356 -244
-535 -3 -83 -15 -247 -21 -282 -3 -22 0 -28 13 -28 10 0 96 27 193 59 206 70
340 106 430 116 14 1 39 5 55 8 17 3 59 9 95 13 88 9 107 11 165 18 28 3 73 8
100 11 123 15 161 20 245 36 30 6 69 13 85 16 31 5 119 40 295 116 217 95 302
87 755 -67 363 -123 414 -128 580 -47 118 57 191 80 220 72 66 -19 100 -84
145 -271 48 -197 48 -198 81 -50 54 244 57 367 9 478 -52 121 -178 185 -390
198 -52 4 -106 8 -120 9 -14 2 -40 3 -58 4 -18 1 -31 5 -27 11 8 13 163 113
207 134 100 45 214 72 358 81 52 4 97 8 99 10 5 6 -125 65 -204 92 -95 32
-209 61 -275 69 -30 3 -75 9 -100 13 -52 8 -320 6 -395 -3 -27 -3 -75 -8 -105
-12 -30 -3 -64 -8 -75 -11 -26 -7 -16 3 60 61 33 25 66 50 73 56 33 29 187
118 272 159 52 24 140 60 195 78 l100 33 -170 -6 c-211 -7 -315 -15 -395 -29
-8 -1 -40 -6 -70 -11 -30 -4 -57 -8 -60 -9 -3 -1 -23 -5 -45 -9 -245 -48 -510
-147 -734 -276 -49 -27 -91 -50 -94 -50 -4 0 35 55 86 123 125 167 332 373
465 461 56 37 102 69 102 70 0 2 -91 2 -93 -1z"/>
<path d="M2498 4695 c-2 -1 -41 -6 -88 -9 -47 -4 -94 -9 -105 -11 -11 -2 -42
-7 -69 -10 -28 -3 -80 -12 -116 -20 -36 -8 -77 -16 -90 -18 -43 -8 -210 -57
-253 -74 -23 -9 -64 -30 -92 -46 -261 -155 -265 -414 -16 -941 153 -323 195
-416 222 -501 l23 -70 12 65 c7 35 11 71 9 80 -1 8 -6 42 -9 75 -4 33 -9 67
-11 75 -2 8 -6 36 -9 63 -3 26 -9 68 -12 95 -11 83 -11 177 1 237 9 45 19 65
45 88 29 26 37 28 82 23 86 -11 213 -85 314 -183 54 -54 112 -165 135 -260 25
-107 26 -118 18 -853 -4 -382 5 -513 48 -708 26 -119 86 -280 128 -344 14 -21
25 -40 25 -44 0 -15 133 -175 189 -226 131 -122 288 -219 456 -283 39 -15 79
-31 90 -35 59 -25 271 -84 337 -94 21 -3 58 -10 82 -16 139 -31 462 -34 594
-6 175 37 312 116 357 206 32 65 69 233 80 365 3 39 8 79 10 90 2 11 7 67 10
125 4 58 8 125 10 150 5 61 5 507 1 600 -8 154 -18 238 -42 360 -17 81 -122
220 -210 276 -88 56 -172 78 -309 78 -108 0 -228 -9 -244 -18 -3 -2 -22 -7
-41 -10 -76 -12 -282 -77 -458 -146 -74 -28 -207 -107 -223 -132 -13 -20 -64
-25 -104 -10 -57 22 -158 95 -195 142 -64 81 -154 292 -190 445 -47 201 -5
502 112 800 76 195 98 316 74 414 -13 54 -73 118 -146 155 -92 47 -146 58
-291 61 -76 2 -139 2 -141 0z m1963 -2220 c148 -42 273 -144 261 -212 -8 -52
-86 -70 -332 -77 -102 -3 -196 -7 -210 -10 -22 -5 -84 -17 -170 -33 -65 -12
-169 -14 -189 -4 -30 16 -27 56 9 118 63 109 255 209 440 229 30 4 56 7 57 9
4 3 108 -12 134 -20z"/>
<path d="M3380 4187 c-126 -54 -248 -122 -237 -133 2 -3 75 10 160 29 86 19
175 33 199 31 81 -5 243 -13 408 -20 91 -3 177 -7 193 -9 50 -5 38 12 -26 38
-74 30 -161 53 -232 63 -27 3 -59 9 -70 11 -11 3 -92 7 -180 9 -150 4 -163 3
-215 -19z"/>
<path d="M4537 4189 c-102 -21 -176 -44 -202 -63 -18 -14 -13 -15 60 -11 82 4
374 16 455 19 44 1 45 2 48 38 l3 37 -141 -2 c-84 -1 -174 -8 -223 -18z"/>
<path d="M3616 3934 c-223 -70 -340 -322 -255 -550 63 -168 241 -278 408 -252
277 43 424 348 291 607 -81 159 -279 246 -444 195z m102 -139 c-4 -39 -3 -44
13 -42 27 4 34 15 34 50 0 29 4 32 33 35 l34 3 -4 -43 c-2 -39 -1 -43 22 -46
112 -14 150 -84 83 -154 -25 -26 -25 -28 -6 -28 52 0 76 -88 39 -144 -19 -30
-87 -65 -126 -66 -38 -1 -50 -13 -53 -55 -2 -36 -4 -39 -32 -40 -29 0 -30 1
-27 43 4 39 2 42 -22 42 -20 0 -26 -5 -27 -22 -3 -62 -3 -63 -36 -66 l-32 -3
5 45 5 46 -58 -2 c-41 -2 -58 1 -57 10 1 6 2 21 3 32 1 15 8 20 30 20 17 0 33
5 37 11 8 14 17 112 18 199 l1 65 -36 3 c-33 3 -35 5 -31 32 4 29 6 30 63 30
33 0 60 5 60 10 1 6 3 15 4 20 1 6 3 21 4 35 1 21 6 25 32 25 31 0 31 0 27
-45z"/>
<path d="M3709 3663 c0 -16 -2 -37 -4 -48 -5 -26 5 -31 58 -27 46 4 87 31 87
57 0 29 -31 45 -86 45 -52 0 -54 -1 -55 -27z"/>
<path d="M3692 3472 l-2 -59 57 4 c96 8 139 44 106 89 -11 15 -29 19 -86 22
l-73 4 -2 -60z"/>
</g>
</svg>
